<!DOCTYPE svg PUBLIC "-//W3C//DTD SVG 1.1//EN" "http://www.w3.org/Graphics/SVG/1.1/DTD/svg11.dtd">
<!-- Uploaded to: SVG Repo, www.svgrepo.com, Transformed by: SVG Repo Mixer Tools -->
<svg version="1.1" id="Layer_1" xmlns="http://www.w3.org/2000/svg" xmlns:xlink="http://www.w3.org/1999/xlink" viewBox="0 0 512 512" xml:space="preserve" width="800px" height="800px" fill="#46005A">
<g id="SVGRepo_bgCarrier" stroke-width="0"/>
<g id="SVGRepo_tracerCarrier" stroke-linecap="round" stroke-linejoin="round"/>
<g id="SVGRepo_iconCarrier"> <polygon points="186.704,494.408 174.528,484.072 256.336,387.688 337.504,484.088 325.248,494.392 256.272,412.456 "/> <rect x="248" y="401.8" width="16" height="93.424"/> <path style="fill:#46005A;" d="M480,116.056H32c-17.6,0-32-14.4-32-32l0,0c0-17.6,14.4-32,32-32h448c17.6,0,32,14.4,32,32l0,0 C512,101.656,497.6,116.056,480,116.056z"/> <path style="fill:#8D5BC7;" d="M460.8,114.424v256c0,14.08-11.52,25.6-25.6,25.6H76.8c-14.08,0-25.6-11.52-25.6-25.6v-256"/> <path d="M220.72,52.056L220.72,52.056c0-19.408,15.872-35.28,35.28-35.28l0,0c19.408,0,35.28,15.872,35.28,35.28l0,0"/> <g> <rect x="229.968" y="167.736" style="fill:#FFFFFF;" width="63.12" height="170.208"/> <rect x="128.96" y="242.12" style="fill:#FFFFFF;" width="63.12" height="95.744"/> <rect x="330.96" y="274.12" style="fill:#FFFFFF;" width="63.12" height="63.824"/> </g> </g>
</svg>